<svg id="visual" viewBox="0 0 1920 1080" width="1920" height="1080" xmlns="http://www.w3.org/2000/svg" xmlns:xlink="http://www.w3.org/1999/xlink" version="1.1"><rect x="0" y="0" width="1920" height="1080" fill="#E2E8F0"></rect><defs><linearGradient id="grad1_0" x1="43.8%" y1="0%" x2="100%" y2="100%"><stop offset="14.444444444444446%" stop-color="#14516b" stop-opacity="1"></stop><stop offset="85.55555555555554%" stop-color="#14516b" stop-opacity="1"></stop></linearGradient></defs><defs><linearGradient id="grad1_1" x1="43.8%" y1="0%" x2="100%" y2="100%"><stop offset="14.444444444444446%" stop-color="#14516b" stop-opacity="1"></stop><stop offset="85.55555555555554%" stop-color="#50748b" stop-opacity="1"></stop></linearGradient></defs><defs><linearGradient id="grad1_2" x1="43.8%" y1="0%" x2="100%" y2="100%"><stop offset="14.444444444444446%" stop-color="#8198ac" stop-opacity="1"></stop><stop offset="85.55555555555554%" stop-color="#50748b" stop-opacity="1"></stop></linearGradient></defs><defs><linearGradient id="grad1_3" x1="43.8%" y1="0%" x2="100%" y2="100%"><stop offset="14.444444444444446%" stop-color="#8198ac" stop-opacity="1"></stop><stop offset="85.55555555555554%" stop-color="#b2bfce" stop-opacity="1"></stop></linearGradient></defs><defs><linearGradient id="grad1_4" x1="43.8%" y1="0%" x2="100%" y2="100%"><stop offset="14.444444444444446%" stop-color="#e2e8f0" stop-opacity="1"></stop><stop offset="85.55555555555554%" stop-color="#b2bfce" stop-opacity="1"></stop></linearGradient></defs><defs><linearGradient id="grad2_0" x1="0%" y1="0%" x2="56.3%" y2="100%"><stop offset="14.444444444444446%" stop-color="#14516b" stop-opacity="1"></stop><stop offset="85.55555555555554%" stop-color="#14516b" stop-opacity="1"></stop></linearGradient></defs><defs><linearGradient id="grad2_1" x1="0%" y1="0%" x2="56.3%" y2="100%"><stop offset="14.444444444444446%" stop-color="#50748b" stop-opacity="1"></stop><stop offset="85.55555555555554%" stop-color="#14516b" stop-opacity="1"></stop></linearGradient></defs><defs><linearGradient id="grad2_2" x1="0%" y1="0%" x2="56.3%" y2="100%"><stop offset="14.444444444444446%" stop-color="#50748b" stop-opacity="1"></stop><stop offset="85.55555555555554%" stop-color="#8198ac" stop-opacity="1"></stop></linearGradient></defs><defs><linearGradient id="grad2_3" x1="0%" y1="0%" x2="56.3%" y2="100%"><stop offset="14.444444444444446%" stop-color="#b2bfce" stop-opacity="1"></stop><stop offset="85.55555555555554%" stop-color="#8198ac" stop-opacity="1"></stop></linearGradient></defs><defs><linearGradient id="grad2_4" x1="0%" y1="0%" x2="56.3%" y2="100%"><stop offset="14.444444444444446%" stop-color="#b2bfce" stop-opacity="1"></stop><stop offset="85.55555555555554%" stop-color="#e2e8f0" stop-opacity="1"></stop></linearGradient></defs><g transform="translate(1920, 0)"><path d="M0 972C-80.1 953.2 -160.3 934.4 -246.4 919.6C-332.5 904.7 -424.6 893.9 -486 841.8C-547.4 789.7 -578.1 696.4 -629.3 629.3C-680.6 562.3 -752.3 521.4 -796.7 460C-841.2 398.6 -858.2 316.7 -882.9 236.6C-907.5 156.5 -939.8 78.2 -972 0L0 0Z" fill="#cad3df"></path><path d="M0 777.6C-64.1 762.6 -128.2 747.5 -197.1 735.6C-266 723.8 -339.7 715.1 -388.8 673.4C-437.9 631.8 -462.5 557.1 -503.5 503.5C-544.4 449.8 -601.9 417.1 -637.4 368C-672.9 318.9 -686.6 253.3 -706.3 189.2C-726 125.2 -751.8 62.6 -777.6 0L0 0Z" fill="#9aacbd"></path><path d="M0 583.2C-48.1 571.9 -96.2 560.6 -147.8 551.7C-199.5 542.8 -254.8 536.3 -291.6 505.1C-328.4 473.8 -346.9 417.8 -377.6 377.6C-408.3 337.4 -451.4 312.8 -478 276C-504.7 239.2 -514.9 190 -529.7 141.9C-544.5 93.9 -563.9 46.9 -583.2 0L0 0Z" fill="#69869c"></path><path d="M0 388.8C-32.1 381.3 -64.1 373.8 -98.6 367.8C-133 361.9 -169.8 357.5 -194.4 336.7C-219 315.9 -231.2 278.6 -251.7 251.7C-272.2 224.9 -300.9 208.6 -318.7 184C-336.5 159.4 -343.3 126.7 -353.1 94.6C-363 62.6 -375.9 31.3 -388.8 0L0 0Z" fill="#36627b"></path><path d="M0 194.4C-16 190.6 -32.1 186.9 -49.3 183.9C-66.5 180.9 -84.9 178.8 -97.2 168.4C-109.5 157.9 -115.6 139.3 -125.9 125.9C-136.1 112.5 -150.5 104.3 -159.3 92C-168.2 79.7 -171.6 63.3 -176.6 47.3C-181.5 31.3 -188 15.6 -194.4 0L0 0Z" fill="#14516b"></path></g><g transform="translate(0, 1080)"><path d="M0 -972C91.4 -979.2 182.7 -986.4 251.6 -938.9C320.4 -891.3 366.7 -789 417.5 -723.1C468.3 -657.2 523.7 -627.7 592.6 -592.6C661.4 -557.4 743.9 -516.7 788.1 -455C832.3 -393.3 838.3 -310.5 862.6 -231.1C886.9 -151.8 929.4 -75.9 972 0L0 0Z" fill="#cad3df"></path><path d="M0 -777.6C73.1 -783.4 146.2 -789.1 201.3 -751.1C256.3 -713.1 293.3 -631.2 334 -578.5C374.7 -525.8 418.9 -502.1 474 -474C529.2 -445.9 595.1 -413.4 630.5 -364C665.8 -314.6 670.6 -248.4 690.1 -184.9C709.5 -121.4 743.5 -60.7 777.6 0L0 0Z" fill="#9aacbd"></path><path d="M0 -583.2C54.8 -587.5 109.6 -591.9 150.9 -563.3C192.2 -534.8 220 -473.4 250.5 -433.9C281 -394.3 314.2 -376.6 355.5 -355.5C396.9 -334.5 446.3 -310 472.8 -273C499.4 -236 503 -186.3 517.5 -138.7C532.1 -91.1 557.7 -45.5 583.2 0L0 0Z" fill="#69869c"></path><path d="M0 -388.8C36.5 -391.7 73.1 -394.6 100.6 -375.6C128.2 -356.5 146.7 -315.6 167 -289.3C187.3 -262.9 209.5 -251.1 237 -237C264.6 -223 297.5 -206.7 315.2 -182C332.9 -157.3 335.3 -124.2 345 -92.5C354.7 -60.7 371.8 -30.4 388.8 0L0 0Z" fill="#36627b"></path><path d="M0 -194.4C18.3 -195.8 36.5 -197.3 50.3 -187.8C64.1 -178.3 73.3 -157.8 83.5 -144.6C93.7 -131.4 104.7 -125.5 118.5 -118.5C132.3 -111.5 148.8 -103.3 157.6 -91C166.5 -78.7 167.7 -62.1 172.5 -46.2C177.4 -30.4 185.9 -15.2 194.4 0L0 0Z" fill="#14516b"></path></g></svg>