<svg id="visual" viewBox="0 0 1920 1080" width="1920" height="1080" xmlns="http://www.w3.org/2000/svg" xmlns:xlink="http://www.w3.org/1999/xlink" version="1.1"><path d="M0 239L29.2 233.5C58.3 228 116.7 217 174.8 215.2C233 213.3 291 220.7 349.2 209.8C407.3 199 465.7 170 523.8 170C582 170 640 199 698.2 202.7C756.3 206.3 814.7 184.7 872.8 166.7C931 148.7 989 134.3 1047.2 132.5C1105.3 130.7 1163.7 141.3 1221.8 144.8C1280 148.3 1338 144.7 1396.2 162.7C1454.3 180.7 1512.7 220.3 1570.8 215C1629 209.7 1687 159.3 1745.2 143.2C1803.3 127 1861.7 145 1890.8 154L1920 163L1920 0L1890.8 0C1861.7 0 1803.3 0 1745.2 0C1687 0 1629 0 1570.8 0C1512.7 0 1454.3 0 1396.2 0C1338 0 1280 0 1221.8 0C1163.7 0 1105.3 0 1047.2 0C989 0 931 0 872.8 0C814.7 0 756.3 0 698.2 0C640 0 582 0 523.8 0C465.7 0 407.3 0 349.2 0C291 0 233 0 174.8 0C116.7 0 58.3 0 29.2 0L0 0Z" fill="#9aadc9"></path><path d="M0 433L29.2 433C58.3 433 116.7 433 174.8 445.7C233 458.3 291 483.7 349.2 469.3C407.3 455 465.7 401 523.8 402.7C582 404.3 640 461.7 698.2 483.2C756.3 504.7 814.7 490.3 872.8 461.7C931 433 989 390 1047.2 379.2C1105.3 368.3 1163.7 389.7 1221.8 420.2C1280 450.7 1338 490.3 1396.2 508.3C1454.3 526.3 1512.7 522.7 1570.8 526.3C1629 530 1687 541 1745.2 528.5C1803.3 516 1861.7 480 1890.8 462L1920 444L1920 161L1890.8 152C1861.7 143 1803.3 125 1745.2 141.2C1687 157.3 1629 207.7 1570.8 213C1512.7 218.3 1454.3 178.7 1396.2 160.7C1338 142.7 1280 146.3 1221.8 142.8C1163.7 139.3 1105.3 128.7 1047.2 130.5C989 132.3 931 146.7 872.8 164.7C814.7 182.7 756.3 204.3 698.2 200.7C640 197 582 168 523.8 168C465.7 168 407.3 197 349.2 207.8C291 218.7 233 211.3 174.8 213.2C116.7 215 58.3 226 29.2 231.5L0 237Z" fill="#8ea4c5"></path><path d="M0 541L29.2 551.8C58.3 562.7 116.7 584.3 174.8 595.2C233 606 291 606 349.2 575.3C407.3 544.7 465.7 483.3 523.8 492.3C582 501.3 640 580.7 698.2 613.2C756.3 645.7 814.7 631.3 872.8 602.5C931 573.7 989 530.3 1047.2 512.3C1105.3 494.3 1163.7 501.7 1221.8 530.5C1280 559.3 1338 609.7 1396.2 627.7C1454.3 645.7 1512.7 631.3 1570.8 627.7C1629 624 1687 631 1745.2 627.3C1803.3 623.7 1861.7 609.3 1890.8 602.2L1920 595L1920 442L1890.8 460C1861.7 478 1803.3 514 1745.2 526.5C1687 539 1629 528 1570.8 524.3C1512.7 520.7 1454.3 524.3 1396.2 506.3C1338 488.3 1280 448.7 1221.8 418.2C1163.7 387.7 1105.3 366.3 1047.2 377.2C989 388 931 431 872.8 459.7C814.7 488.3 756.3 502.7 698.2 481.2C640 459.7 582 402.3 523.8 400.7C465.7 399 407.3 453 349.2 467.3C291 481.7 233 456.3 174.8 443.7C116.7 431 58.3 431 29.2 431L0 431Z" fill="#819bc0"></path><path d="M0 649L29.2 665.2C58.3 681.3 116.7 713.7 174.8 729.8C233 746 291 746 349.2 722.7C407.3 699.3 465.7 652.7 523.8 652.7C582 652.7 640 699.3 698.2 735.3C756.3 771.3 814.7 796.7 872.8 780.5C931 764.3 989 706.7 1047.2 683.2C1105.3 659.7 1163.7 670.3 1221.8 693.7C1280 717 1338 753 1396.2 765.7C1454.3 778.3 1512.7 767.7 1570.8 776.7C1629 785.7 1687 814.3 1745.2 816.2C1803.3 818 1861.7 793 1890.8 780.5L1920 768L1920 593L1890.8 600.2C1861.7 607.3 1803.3 621.7 1745.2 625.3C1687 629 1629 622 1570.8 625.7C1512.7 629.3 1454.3 643.7 1396.2 625.7C1338 607.7 1280 557.3 1221.8 528.5C1163.7 499.7 1105.3 492.3 1047.2 510.3C989 528.3 931 571.7 872.8 600.5C814.7 629.3 756.3 643.7 698.2 611.2C640 578.7 582 499.3 523.8 490.3C465.7 481.3 407.3 542.7 349.2 573.3C291 604 233 604 174.8 593.2C116.7 582.3 58.3 560.7 29.2 549.8L0 539Z" fill="#7592bc"></path><path d="M0 1081L29.2 1081C58.3 1081 116.7 1081 174.8 1081C233 1081 291 1081 349.2 1081C407.3 1081 465.7 1081 523.8 1081C582 1081 640 1081 698.2 1081C756.3 1081 814.7 1081 872.8 1081C931 1081 989 1081 1047.2 1081C1105.3 1081 1163.7 1081 1221.8 1081C1280 1081 1338 1081 1396.2 1081C1454.3 1081 1512.7 1081 1570.8 1081C1629 1081 1687 1081 1745.2 1081C1803.3 1081 1861.7 1081 1890.8 1081L1920 1081L1920 766L1890.8 778.5C1861.7 791 1803.3 816 1745.2 814.2C1687 812.3 1629 783.7 1570.8 774.7C1512.7 765.7 1454.3 776.3 1396.2 763.7C1338 751 1280 715 1221.8 691.7C1163.7 668.3 1105.3 657.7 1047.2 681.2C989 704.7 931 762.3 872.8 778.5C814.7 794.7 756.3 769.3 698.2 733.3C640 697.3 582 650.7 523.8 650.7C465.7 650.7 407.3 697.3 349.2 720.7C291 744 233 744 174.8 727.8C116.7 711.7 58.3 679.3 29.2 663.2L0 647Z" fill="#688ab7"></path></svg>