<svg id="visual" viewBox="0 0 1920 1080" width="1920" height="1080" xmlns="http://www.w3.org/2000/svg" xmlns:xlink="http://www.w3.org/1999/xlink" version="1.1"><path d="M0 260L175 260L175 206L349 206L349 174L524 174L524 249L698 249L698 163L873 163L873 206L1047 206L1047 174L1222 174L1222 249L1396 249L1396 98L1571 98L1571 163L1745 163L1745 141L1920 141L1920 271L1920 0L1920 0L1745 0L1745 0L1571 0L1571 0L1396 0L1396 0L1222 0L1222 0L1047 0L1047 0L873 0L873 0L698 0L698 0L524 0L524 0L349 0L349 0L175 0L175 0L0 0Z" fill="#1e3148"></path><path d="M0 401L175 401L175 422L349 422L349 368L524 368L524 509L698 509L698 325L873 325L873 357L1047 357L1047 314L1222 314L1222 336L1396 336L1396 325L1571 325L1571 249L1745 249L1745 357L1920 357L1920 390L1920 269L1920 139L1745 139L1745 161L1571 161L1571 96L1396 96L1396 247L1222 247L1222 172L1047 172L1047 204L873 204L873 161L698 161L698 247L524 247L524 172L349 172L349 204L175 204L175 258L0 258Z" fill="#cbced3"></path><path d="M0 714L175 714L175 876L349 876L349 563L524 563L524 876L698 876L698 692L873 692L873 768L1047 768L1047 541L1222 541L1222 876L1396 876L1396 876L1571 876L1571 638L1745 638L1745 617L1920 617L1920 811L1920 388L1920 355L1745 355L1745 247L1571 247L1571 323L1396 323L1396 334L1222 334L1222 312L1047 312L1047 355L873 355L873 323L698 323L698 507L524 507L524 366L349 366L349 420L175 420L175 399L0 399Z" fill="#cbced3"></path><path d="M0 1081L175 1081L175 1081L349 1081L349 1081L524 1081L524 1081L698 1081L698 1081L873 1081L873 1081L1047 1081L1047 1081L1222 1081L1222 1081L1396 1081L1396 1081L1571 1081L1571 1081L1745 1081L1745 1081L1920 1081L1920 1081L1920 809L1920 615L1745 615L1745 636L1571 636L1571 874L1396 874L1396 874L1222 874L1222 539L1047 539L1047 766L873 766L873 690L698 690L698 874L524 874L524 561L349 561L349 874L175 874L175 712L0 712Z" fill="#1e3148"></path></svg>